<svg xmlns="http://www.w3.org/2000/svg" width="682.667" height="682.667" preserveAspectRatio="xMidYMid meet" version="1.0" viewBox="0 0 512 512"><metadata>Created by potrace 1.11, written by Peter Selinger 2001-2013</metadata><g fill="#000" stroke="none"><path d="M3525 5113 c-262 -32 -529 -143 -730 -302 -54 -44 -176 -162 -206 -201 -13 -17 -29 -37 -35 -43 -97 -106 -249 -435 -269 -585 -3 -21 -8 -47 -10 -59 -17 -78 -23 -282 -11 -383 20 -167 76 -352 149 -494 23 -45 43 -84 45 -87 1 -4 -548 -558 -1222 -1231 l-1224 -1225 240 -240 240 -240 143 144 143 144 157 -157 157 -157 219 219 c120 120 219 222 219 226 0 3 -67 74 -150 156 -82 83 -150 154 -150 158 0 4 101 108 225 231 l225 225 157 -157 156 -157 219 219 c120 120 218 222 218 226 0 5 -62 71 -137 146 -76 75 -144 145 -152 154 -12 16 27 58 392 423 224 223 410 404 414 402 5 -2 41 -20 80 -41 134 -69 301 -125 426 -142 20 -3 54 -7 75 -10 52 -8 257 -8 317 0 323 42 606 177 823 393 116 114 133 135 199 233 102 151 176 327 214 512 27 130 33 364 13 492 -59 378 -271 724 -579 946 -125 90 -288 170 -430 210 -75 22 -82 23 -165 40 -54 11 -336 19 -395 12z m534 -754 c270 -56 383 -371 210 -589 -41 -53 -117 -103 -184 -121 -57 -17 -165 -13 -216 7 -102 40 -168 99 -210 189 -98 207 10 443 234 510 55 16 102 17 166 4z" transform="translate(0.000000,512.000000) scale(0.100000,-0.100000)"/></g></svg>